C:\Users\movea\Dropbox\PhDWork\ExperimentalData\subject7\100\P7S100W04_filtered35.mot
nRows=6
nColumns=28

name C:\Users\movea\Dropbox\PhDWork\ExperimentalData\subject7\100\P7S100W04_filtered35.mot
datacolumns 28
datarows 6
range 0.0000000000 0.0050000000
endheader
time	ground_force_1_vx	ground_force_1_vy	ground_force_1_vz	ground_force_1_px	ground_force_1_py	ground_force_1_pz	ground_moment_1_mx	ground_moment_1_my	ground_moment_1_mz	ground_force_2_vx	ground_force_2_vy	ground_force_2_vz	ground_force_2_px	ground_force_2_py	ground_force_2_pz	ground_moment_2_mx	ground_moment_2_my	ground_moment_2_mz	ground_force_3_vx	ground_force_3_vy	ground_force_3_vz	ground_force_3_px	ground_force_3_py	ground_force_3_pz	ground_moment_3_mx	ground_moment_3_my	ground_moment_3_mz
        0.0000000000	        0.0000000000	        0.0000000000	       -0.0000000000	        0.1988394958	        0.0000558755	       -0.3004071327	       -0.0000000000	       -0.0000000000	       -0.0000000000	       -0.0000000000	        0.0000000000	       -0.0000000000	        0.2029003516	       -0.0000795827	        0.4543649445	        0.0000000000	       -0.0000000000	       -0.0000000000	       20.8583285379	      304.8665967603	      -16.6580752426	        0.2076431971	        0.0000770316	        1.3583900146	      -82.5311212110	        4.5269055815	      -33.7752222308	
        0.0010000000	        0.0000000000	        0.0000000000	       -0.0000000000	        0.1988394958	        0.0000558755	       -0.3004071327	       -0.0000000000	       -0.0000000000	       -0.0000000000	       -0.0000000000	        0.0000000000	       -0.0000000000	        0.2029003516	       -0.0000795827	        0.4543649445	        0.0000000000	       -0.0000000000	       -0.0000000000	       20.9621080547	      307.9942962149	      -16.5166595770	        0.2076431971	        0.0000770316	        1.3583900146	      -83.4083360607	        4.5677864526	      -34.0965979660	
        0.0020000000	        0.0000000000	        0.0000000000	       -0.0000000000	        0.1988394958	        0.0000558755	       -0.3004071327	       -0.0000000000	       -0.0000000000	       -0.0000000000	       -0.0000000000	        0.0000000000	       -0.0000000000	        0.2029003516	       -0.0000795827	        0.4543649445	        0.0000000000	       -0.0000000000	       -0.0000000000	       21.0662357691	      311.2256667844	      -16.3716379599	        0.2076431971	        0.0000770316	        1.3583900146	      -84.3111818061	        4.6094929891	      -34.4301876008	
        0.0030000000	        0.0000000000	        0.0000000000	       -0.0000000000	        0.1988394958	        0.0000558755	       -0.3004071327	       -0.0000000000	       -0.0000000000	       -0.0000000000	       -0.0000000000	        0.0000000000	       -0.0000000000	        0.2029003516	       -0.0000795827	        0.4543649445	        0.0000000000	       -0.0000000000	       -0.0000000000	       21.1693410023	      314.5420350029	      -16.2247423153	        0.2076431971	        0.0000770316	        1.3583900146	      -85.2315422874	        4.6518453421	      -34.7747663561	
        0.0040000000	        0.0000000000	        0.0000000000	       -0.0000000000	        0.1988394958	        0.0000558755	       -0.3004071327	       -0.0000000000	       -0.0000000000	       -0.0000000000	        0.0000000000	        0.0000000000	       -0.0000000000	        0.2029003516	       -0.0000795827	        0.4543649445	        0.0000000000	        0.0000000000	       -0.0000000000	       21.2703677017	      317.9226417398	      -16.0768169522	        0.2076431971	        0.0000770316	        1.3583900146	      -86.1631366373	        4.6948011817	      -35.1290228852	
        0.0050000000	        0.0000000000	        0.0000000000	       -0.0000000000	        0.1988394958	        0.0000558755	       -0.3004071327	       -0.0000000000	       -0.0000000000	       -0.0000000000	        0.0000000000	        0.0000000000	        0.0000000000	        0.2029003516	       -0.0000795827	        0.4543649445	       -0.0000000000	        0.0000000000	       -0.0000000000	       21.3679384113	      321.3447806176	      -15.9281216753	        0.2076431971	        0.0000770316	        1.3583900146	      -87.1014253650	        4.7384250596	      -35.4913458561	
